REM DIRINDEX 1\2,1\3,1\4,1\5
REM DIRNAME cjc046,folder01,folder02,folder03,folder04
TITLE ""
FILE "125.mp3" MP3
  TRACK 01 AUDIO
    TITLE "0:"
    INDEX 01 00:00:00
  TRACK 02 AUDIO
    TITLE "2:cjc046_3117"
    INDEX 01 00:00:13
  TRACK 03 AUDIO
    TITLE "0:"
    INDEX 01 00:01:15
  TRACK 04 AUDIO
    TITLE "3:cjc046_3118"
    INDEX 01 00:01:36
  TRACK 05 AUDIO
    TITLE "0:"
    INDEX 01 00:02:42
  TRACK 06 AUDIO
    TITLE "4:cjc046_3119"
    INDEX 01 00:02:53
  TRACK 07 AUDIO
    TITLE "0:"
    INDEX 01 00:03:55
  TRACK 08 AUDIO
    TITLE "2:cjc046_3120"
    INDEX 01 00:04:64
  TRACK 09 AUDIO
    TITLE "0:"
    INDEX 01 00:05:63
  TRACK 10 AUDIO
    TITLE "3:cjc046_3121"
    INDEX 01 00:06:16
  TRACK 11 AUDIO
    TITLE "0:"
    INDEX 01 00:08:03
  TRACK 12 AUDIO
    TITLE "4:cjc046_3122"
    INDEX 01 00:08:19
  TRACK 13 AUDIO
    TITLE "0:"
    INDEX 01 00:09:18
  TRACK 14 AUDIO
    TITLE "2:cjc046_3123"
    INDEX 01 00:10:29
  TRACK 15 AUDIO
    TITLE "0:"
    INDEX 01 00:11:39
  TRACK 16 AUDIO
    TITLE "3:cjc046_3124"
    INDEX 01 00:11:58
  TRACK 17 AUDIO
    TITLE "0:"
    INDEX 01 00:13:04
  TRACK 18 AUDIO
    TITLE "4:cjc046_3125"
    INDEX 01 00:13:24
  TRACK 19 AUDIO
    TITLE "0:"
    INDEX 01 00:14:33
  TRACK 20 AUDIO
    TITLE "2:cjc046_3126"
    INDEX 01 00:15:36
  TRACK 21 AUDIO
    TITLE "0:"
    INDEX 01 00:16:46
  TRACK 22 AUDIO
    TITLE "3:cjc046_3127"
    INDEX 01 00:16:63
  TRACK 23 AUDIO
    TITLE "0:"
    INDEX 01 00:17:51
  TRACK 24 AUDIO
    TITLE "4:cjc046_3128"
    INDEX 01 00:17:61
  TRACK 25 AUDIO
    TITLE "0:"
    INDEX 01 00:18:70
  TRACK 26 AUDIO
    TITLE "2:cjc046_3129"
    INDEX 01 00:19:69
  TRACK 27 AUDIO
    TITLE "0:"
    INDEX 01 00:21:00
  TRACK 28 AUDIO
    TITLE "3:cjc046_3130"
    INDEX 01 00:21:19
  TRACK 29 AUDIO
    TITLE "0:"
    INDEX 01 00:22:72
  TRACK 30 AUDIO
    TITLE "4:cjc046_3131"
    INDEX 01 00:23:04
  TRACK 31 AUDIO
    TITLE "0:"
    INDEX 01 00:24:10
  TRACK 32 AUDIO
    TITLE "2:cjc046_3132"
    INDEX 01 00:25:19
  TRACK 33 AUDIO
    TITLE "0:"
    INDEX 01 00:26:24
  TRACK 34 AUDIO
    TITLE "3:cjc046_3133"
    INDEX 01 00:26:46
  TRACK 35 AUDIO
    TITLE "0:"
    INDEX 01 00:27:57
  TRACK 36 AUDIO
    TITLE "4:cjc046_3134"
    INDEX 01 00:28:02
  TRACK 37 AUDIO
    TITLE "0:"
    INDEX 01 00:29:07
  TRACK 38 AUDIO
    TITLE "2:cjc046_3135"
    INDEX 01 00:30:16
  TRACK 39 AUDIO
    TITLE "0:"
    INDEX 01 00:31:24
  TRACK 40 AUDIO
    TITLE "3:cjc046_3136"
    INDEX 01 00:31:45
  TRACK 41 AUDIO
    TITLE "0:"
    INDEX 01 00:32:72
  TRACK 42 AUDIO
    TITLE "4:cjc046_3137"
    INDEX 01 00:33:11
  TRACK 43 AUDIO
    TITLE "0:"
    INDEX 01 00:34:22
  TRACK 44 AUDIO
    TITLE "2:cjc046_3138"
    INDEX 01 00:35:31
  TRACK 45 AUDIO
    TITLE "0:"
    INDEX 01 00:36:40
  TRACK 46 AUDIO
    TITLE "3:cjc046_3139"
    INDEX 01 00:36:62
  TRACK 47 AUDIO
    TITLE "0:"
    INDEX 01 00:38:67
  TRACK 48 AUDIO
    TITLE "4:cjc046_3140"
    INDEX 01 00:39:02
  TRACK 49 AUDIO
    TITLE "0:"
    INDEX 01 00:40:09
  TRACK 50 AUDIO
    TITLE "2:cjc046_3141"
    INDEX 01 00:41:18
  TRACK 51 AUDIO
    TITLE "0:"
    INDEX 01 00:42:27
  TRACK 52 AUDIO
    TITLE "3:cjc046_3142"
    INDEX 01 00:42:43
  TRACK 53 AUDIO
    TITLE "0:"
    INDEX 01 00:43:64
  TRACK 54 AUDIO
    TITLE "4:cjc046_3143"
    INDEX 01 00:43:74
  TRACK 55 AUDIO
    TITLE "0:"
    INDEX 01 00:45:06
  TRACK 56 AUDIO
    TITLE "2:cjc046_3144"
    INDEX 01 00:46:19
  TRACK 57 AUDIO
    TITLE "0:"
    INDEX 01 00:47:54
  TRACK 58 AUDIO
    TITLE "3:cjc046_3145"
    INDEX 01 00:48:00
  TRACK 59 AUDIO
    TITLE "0:"
    INDEX 01 00:49:39
  TRACK 60 AUDIO
    TITLE "4:cjc046_3146"
    INDEX 01 00:49:51
  TRACK 61 AUDIO
    TITLE "0:"
    INDEX 01 00:51:13
